<svg xmlns="http://www.w3.org/2000/svg" viewBox="0 0 132.57 36.86"><defs><style>.cls-1{fill:#fff;}</style></defs><g id="Layer_2" data-name="Layer 2"><g id="Layer_1-2" data-name="Layer 1"><path class="cls-1" d="M118.25,0H17.45a14.71,14.71,0,0,0-10,4C5,1.28,1.25,1.18.17,1.14c-.16,0-.22.2-.12.33C3.34,5.32,2.81,12.7,2.81,12.7h0a14.49,14.49,0,0,0-.17,2.09v8.29A13.82,13.82,0,0,0,16.44,36.86H118.35a14.26,14.26,0,0,0,14.22-14.22V14.31A14.35,14.35,0,0,0,118.25,0Z"/><path d="M15.94,14V12.13h6.81v1.36a17.36,17.36,0,0,1-.23,2.89,14.35,14.35,0,0,1-.66,2.45,12.7,12.7,0,0,1-1,2.1,16.94,16.94,0,0,1-1.28,1.82l-1.9-1.23a15.3,15.3,0,0,0,1.26-1.78,10.93,10.93,0,0,0,.91-1.89H15.44V16h4.87A11,11,0,0,0,20.49,14ZM27.23,16h2.33v2H27.23v8h-2.3V11h2.3Z"/><path d="M31,14V12.13h6.81v1.36a17.36,17.36,0,0,1-.23,2.89,14.35,14.35,0,0,1-.66,2.45,12.7,12.7,0,0,1-1,2.1,16.94,16.94,0,0,1-1.28,1.82l-1.9-1.23A15.3,15.3,0,0,0,34,19.74a10.93,10.93,0,0,0,.91-1.89H30.45V16h4.87A11,11,0,0,0,35.5,14ZM42.24,16h2.33v2H42.24v8h-2.3V11h2.3Z"/><path d="M59.36,21.84v1.9H45.07v-1.9h6V19.53A5.56,5.56,0,0,1,49.48,19a4.8,4.8,0,0,1-1.21-.89,3.64,3.64,0,0,1-.77-1.19,3.78,3.78,0,0,1-.27-1.42,3.64,3.64,0,0,1,.37-1.62,4.14,4.14,0,0,1,1-1.3,4.87,4.87,0,0,1,1.57-.87,6.5,6.5,0,0,1,4,0,5,5,0,0,1,1.58.87,3.87,3.87,0,0,1,1,1.3,3.63,3.63,0,0,1,.36,1.62,3.8,3.8,0,0,1-1,2.61,4.69,4.69,0,0,1-1.19.89,5.5,5.5,0,0,1-1.56.51v2.31Zm-7.16-4.1a2.81,2.81,0,0,0,1.94-.63,2.15,2.15,0,0,0,0-3.19,3.33,3.33,0,0,0-3.87,0,2.15,2.15,0,0,0,0,3.19A2.79,2.79,0,0,0,52.2,17.74Z"/><path d="M68.19,13.49a8.42,8.42,0,0,1-.54,3.09,9.4,9.4,0,0,1-1.41,2.5,11.71,11.71,0,0,1-2,2A19.75,19.75,0,0,1,62,22.59l-1.24-1.84a19,19,0,0,0,2-1.31,10.85,10.85,0,0,0,1.67-1.56,7.44,7.44,0,0,0,1.13-1.8,5,5,0,0,0,.42-2H61v-1.9h7.15ZM70.79,11h2.29V26H70.79Z"/><path d="M77.54,17.45V11.31h2.29v1.43h4.82V11.31h2.28v6.14H83.42v1.47h6v1.86H75.07V18.92h6V17.45Zm2.29,4.28v2.76h7.33V26.3H77.47V21.73Zm4.82-7.25H79.83v1.18h4.82Z"/><path d="M96.35,12.79v.68a9.4,9.4,0,0,1-.26,2.23,10.27,10.27,0,0,1-.71,1.95l2.53,2.51-1.54,1.55-2-2.43a9.71,9.71,0,0,1-1.52,1.61,15.05,15.05,0,0,1-1.74,1.24l-1.2-1.76a8.65,8.65,0,0,0,1.68-1.19,9.5,9.5,0,0,0,1.33-1.46,7.2,7.2,0,0,0,.87-1.57,4.29,4.29,0,0,0,.31-1.51H90.49V12.79h1.86V10.88h2.19v1.91Zm.39,3.07h1.47V11.2h2.15V25.35H98.21V17.76H96.74ZM101.27,11h2.19V26h-2.19Z"/><path d="M105.09,19.62V18.45h14.33v1.17Zm2.51,7.15v-3.5h7.84V22H107.6V20.87h9.31v3.46h-7.83v1.29h8.06v1.15Zm.18-9.59V13.73h7.48V12.47h-7.48V11.36h9V14.8h-7.47V16H117v1.14Z"/></g></g></svg>