<?xml version="1.0" encoding="UTF-8"?>
<svg id="Layer_2" data-name="Layer 2" xmlns="http://www.w3.org/2000/svg" viewBox="0 0 39.56 36.86">
  <defs>
    <style>
      .cls-1 {
        fill: #fff;
      }

      .cls-2 {
        fill: #1e1e1e;
      }
    </style>
  </defs>
  <g id="Layer_1-2" data-name="Layer 1">
    <g>
      <path class="cls-2" d="m14.31,0h7.8c3.86,0,7.37,1.51,10.01,3.95,2.41-2.67,6.19-2.77,7.27-2.81.16,0,.22.21.12.33-3.29,3.86-2.76,11.23-2.76,11.23h-.02c.1.69.17,1.38.17,2.09v8.29c0,7.58-6.2,13.78-13.78,13.78h-8.91C6.4,36.86,0,30.46,0,22.64v-8.33C0,6.44,6.44,0,14.31,0Z"/>
      <path class="cls-1" d="m17.27,20.41c0-.5.08-.96.24-1.39.16-.42.46-.84.9-1.24.26-.23.53-.44.8-.64.27-.2.51-.39.73-.59.21-.2.39-.4.53-.61.14-.21.21-.45.21-.71,0-.21-.02-.42-.07-.61-.05-.19-.14-.35-.27-.48-.13-.13-.32-.24-.56-.31-.24-.08-.56-.12-.96-.12-.5,0-1.02.07-1.54.21-.53.14-1.05.33-1.58.57l-.45-1.22c.62-.33,1.25-.58,1.88-.73s1.27-.22,1.92-.22c1.09,0,1.91.25,2.48.73.57.49.85,1.15.85,1.97,0,.3-.04.57-.11.82-.07.25-.19.48-.35.71-.16.23-.38.46-.64.71-.27.25-.6.52-.99.81-.33.25-.61.48-.81.68-.21.2-.37.41-.49.61-.12.2-.2.41-.24.62-.04.21-.06.44-.06.71,0,.16,0,.28,0,.37,0,.09.01.18.03.26l-1.31.14c-.04-.18-.07-.36-.09-.54-.02-.18-.04-.35-.04-.52Zm-.32,4.03l1.34-1.36,1.31,1.36-1.31,1.33-1.34-1.33Z"/>
    </g>
  </g>
</svg>