<?xml version="1.0" encoding="UTF-8"?>
<svg id="Layer_2" data-name="Layer 2" xmlns="http://www.w3.org/2000/svg" viewBox="0 0 101.9 36.86">
  <defs>
    <style>
      .cls-1 {
        fill: #fff;
      }
    </style>
  </defs>
  <g id="Layer_1-2" data-name="Layer 1">
    <g>
      <path class="cls-1" d="m13.73,0h73.66c7.98,0,14.51,6.53,14.51,14.51v7.94c0,7.93-6.48,14.41-14.41,14.41H13.97c-7.69,0-13.97-6.29-13.97-13.97v-9.15C0,6.18,6.18,0,13.73,0Z"/>
      <g>
        <path d="m13.1,24.59v-1.2h6.45v-3.87h1.49v3.87h6.39v1.2h-14.33Zm2.08-4.75c-.1-.2-.19-.4-.29-.6-.1-.2-.19-.4-.29-.6,1.6-.51,2.83-1.22,3.69-2.13.86-.91,1.29-2.01,1.29-3.31v-.88c.25,0,.5,0,.75,0,.25,0,.5,0,.73,0v.95c0,.91-.17,1.74-.52,2.49l5.34,2.67-.7,1.25-5.27-2.88c-.5.68-1.16,1.27-1.96,1.78-.81.51-1.73.92-2.79,1.24Z"/>
        <path d="m34.37,13.21v.86c0,2.04-.44,3.82-1.31,5.32-.87,1.5-2.1,2.78-3.67,3.83l-.95-1.07c1.43-.93,2.54-2.05,3.33-3.37s1.18-2.76,1.18-4.35h-4.1v-1.22h5.52Zm5.5,13.65v-8.38h-1.99v7.72h-1.42v-14.15h1.42v5.21h1.99v-5.37h1.42v14.97h-1.42Z"/>
        <path d="m46.97,11.62h1.49v1.84h3.56v1.16h-8.63v-1.16h3.58v-1.84Zm.72,3.78c.51,0,.98.07,1.39.2.41.13.76.31,1.06.55s.52.51.68.82.24.66.24,1.03-.08.71-.24,1.03-.39.59-.68.82c-.29.23-.64.42-1.06.55-.41.13-.88.2-1.39.2s-.98-.07-1.4-.2c-.42-.13-.77-.31-1.07-.55-.29-.23-.52-.51-.68-.82s-.24-.66-.24-1.03.08-.71.23-1.03c.15-.32.38-.59.68-.82.3-.23.65-.41,1.07-.55.41-.13.88-.2,1.41-.2Zm0,4.05c.65,0,1.13-.14,1.46-.42.33-.28.49-.62.49-1.03s-.16-.73-.49-1.01c-.33-.28-.81-.42-1.46-.42s-1.14.14-1.48.42c-.34.28-.51.62-.51,1.01s.17.75.51,1.03c.34.28.83.42,1.48.42Zm-1.33,7.95v-5.7h1.43v1.65h5.88v-1.65h1.45v5.7h-8.76Zm7.31-2.88h-5.88v1.68h5.88v-1.68Zm1.45-7.61v3.85h-1.45v-8.87h1.45v3.76h2.53v1.25h-2.53Z"/>
        <path d="m68.1,20c.02.2.05.41.07.63s.05.42.07.63c-1.22.23-2.5.39-3.85.48-1.35.1-2.77.14-4.26.14h-.66v-9.06h1.45v7.79c1.18,0,2.39-.05,3.64-.14,1.24-.1,2.42-.25,3.55-.47Zm2.85,6.86h-1.45v-14.97h1.45v14.97Z"/>
        <path d="m82.5,20.29c.02.2.05.41.07.63s.05.42.07.63c-1.29.21-2.56.37-3.82.47-1.26.1-2.59.14-4,.14h-.66v-8.96h7.2v1.25h-5.75v6.45c1.15,0,2.29-.05,3.44-.14,1.15-.1,2.3-.25,3.46-.47Zm2.63-3.04h2.53v1.27h-2.53v8.35h-1.45v-14.97h1.45v5.36Z"/>
        <path d="m88.88,24.87l1.38-1.4,1.36,1.4-1.36,1.38-1.38-1.38Z"/>
      </g>
    </g>
  </g>
</svg>